<?xml version="1.0" standalone="no"?>
<!DOCTYPE svg PUBLIC "-//W3C//DTD SVG 1.1//EN" "http://www.w3.org/Graphics/SVG/1.1/DTD/svg11.dtd" >
<!--
2013-9-30: Created.
-->
<svg>
<metadata>
Created by iconfont
</metadata>
<defs>

<font id="iconfont" horiz-adv-x="1024" >
  <font-face
    font-family="iconfont"
    font-weight="500"
    font-stretch="normal"
    units-per-em="1024"
    ascent="896"
    descent="-128"
  />
    <missing-glyph />
    
    <glyph glyph-name="laptop" unicode="&#59270;" d="M112 64c8.832 0 16 7.168 16 16l0 752c0 19.136 12.864 32 32 32l1024 0c18.24 0 32-14.976 32-34.848l0-749.152c0-8.832 7.168-16 16-16s16 7.168 16 16l0 749.152c0 37.504-28.096 66.848-64 66.848l-1024 0c-37.088 0-64-26.912-64-64l0-752c0-8.832 7.168-16 16-16zM208 800c-8.832 0-16-7.168-16-16l0-704c0-8.832 7.168-16 16-16l928 0c8.832 0 16 7.168 16 16l0 704c0 8.832-7.168 16-16 16l-928 0zM1120 96l-896 0 0 672 896 0 0-672zM1328 0l-1312 0c-8.832 0-16-7.168-16-16l0-37.6c0-38.336 45.056-74.4 80-74.4l1184 0c36.64 0 80 43.36 80 80l0 32c0 8.832-7.168 16-16 16zM1312-48c0-18.848-29.152-48-48-48l-1184 0c-20.192 0-48 24.576-48 42.4l0 21.6 1280 0 0-16z"  horiz-adv-x="1344" />

    
    <glyph glyph-name="huishouzhan" unicode="&#58994;" d="M890.488471 858.292706C886.874353 881.408 863.186824 897.490824 836.592941 893.394824L524.363294 844.513882a34.213647 34.213647 0 0 1-0.37647 4.427294L521.035294 867.659294A33.822118 33.822118 0 0 1 482.740706 895.608471a33.310118 33.310118 0 0 1-21.89553-13.387295 33.28 33.28 0 0 1-6.053647-24.922352l2.921412-18.748236c0.240941-1.460706 0.572235-2.906353 0.978824-4.306823L146.477176 785.377882a50.612706 50.612706 0 0 1-30.735058-16.805647c-8.086588-9.441882-11.685647-21.504-9.86353-33.069176 3.237647-20.705882 22.467765-35.749647 45.70353-35.749647 2.680471 0 5.421176 0.210824 8.192 0.63247l14.336 1.792c0-0.135529 2.831059-0.256 2.831058-0.391529v-654.471529c0-94.629647 56.651294-171.550118 146.115765-171.550118h341.428706c95.533176 0 175.043765 84.434824 175.043765 171.550118v654.45647c0 8.041412-5.300706 2.228706-13.357177 2.228706H261.662118l588.227764 98.243765c26.036706 4.080941 44.257882 32.617412 40.598589 56.048941zM613.647059 556.212706c0 12.047059 10.541176 21.835294 22.588235 21.835294s22.588235-9.788235 22.588235-21.835294v-509.500235c0-12.047059-10.541176-21.835294-22.588235-21.835295s-22.588235 9.788235-22.588235 21.835295V556.212706z m-240.941177 0c0 12.047059 10.541176 21.835294 22.588236 21.835294s22.588235-9.788235 22.588235-21.835294v-509.500235c0-12.047059-10.541176-21.835294-22.588235-21.835295s-22.588235 9.788235-22.588236 21.835295V556.212706z"  horiz-adv-x="1024" />

    
    <glyph glyph-name="wode" unicode="&#58929;" d="M78.964186-88.875654c0-21.51839-18.157253-39.115454-39.675644-39.115454-21.242742 0-39.124346 17.597064-39.124346 39.399995 0 71.53531 29.34326 125.189016 69.863634 164.597902 56.445761 53.929354 135.245751 77.679611 182.194966 81.876587 9.496546 1.120379 17.881605 4.748273 23.750257 10.332384 3.636786 3.636786 5.868652 8.385059 6.989031 12.857683-36.883588 30.463639-54.213895 72.38004-68.183065 107.8676-7.26468 17.321415-13.40898 31.850775-16.770118 36.04775l-0.835838 0.275649-0.275649 0.275649h-0.275649v0.28454c-16.485577 15.080657-39.684536 43.588078-51.697488 76.007935-12.297493 32.135315-15.37409 67.622876 3.076596 100.033839-9.781087 29.6278-14.8139 62.038764-14.8139 95.570108-0.56019 42.75224 6.144301 86.073562 19.562173 125.749205l1.671677 3.352245C173.413914 782.147886 205.83377 822.943909 247.189983 850.615492c44.148268 30.179098 98.922352 43.872619 160.400927 45.268647 22.914418 0.275649 54.213895 0.835838 84.668642-5.032814 34.927371-6.144301 67.907416-19.562173 88.020887-47.785054 41.356212 3.636786 77.403962-19.277632 105.626842-52.808975 34.651722-40.235833 59.522358-98.922352 64.83082-133.574075 4.472624-25.706474 4.472624-52.533327 0.56019-81.040748-2.792056-22.07858-7.824869-45.828836-14.538252-69.303444 21.242742-33.531343 18.441794-70.975121 6.144301-103.955166-12.297493-32.419856-35.211912-61.478575-51.982029-76.283583l-0.560189-0.560189-0.56019-0.56019v-0.275649c-4.196975-3.912435-10.341276-18.717443-17.321415-35.763209-13.693521-35.211912-30.18799-76.292475-66.226848-106.187032 0.835838-5.317354 3.627894-10.341276 7.549221-14.538251 5.584111-5.584111 14.529359-9.212005 23.750256-10.332384 46.664675-4.196975 125.464665-27.947232 181.919318-81.876587 40.235833-39.124346 69.854742-93.062592 69.854742-164.873551 0-21.51839-17.890496-39.115454-39.115455-39.115454-21.794039 0-39.124346 17.597064-39.124346 39.399995 0 46.949215-19.553281 81.876586-46.113377 107.591952-41.640753 39.960184-99.758191 57.841789-134.409913 60.358195-27.947232 2.792056-53.644814 14.529359-72.655689 33.531343-21.23385 20.67366-51.412948 98.646704-12.012953 123.51734 27.653799 16.485577 42.192051 51.973137 53.644814 81.876586 10.901466 26.542312 19.837822 49.45673 37.728319 65.666658v-0.560189l0.275648 0.560189c9.781087 8.669599 24.310446 26.266663 31.575126 45.828836 5.593003 14.529359 6.713382 29.058719-2.783164 39.124347h0.275649c-10.341276 11.452763-13.96917 32.135315-9.220897 46.389025 7.824869 24.870635 13.40898 48.060702 15.925387 70.414932 2.516407 20.958201 3.076596 40.520374-0.275648 59.798006-3.352245 23.474608-21.242742 64.279522-46.664675 93.898431-13.417872 15.934279-27.947232 27.387042-40.235833 25.155176-13.693521-1.956217-27.111393 0-39.408887 5.584111a73.358149 73.358149 0 0 0-27.387042 23.474608l-2.489732 2.774272c-5.868652 8.936356-20.958201 14.529359-38.564156 17.605955-23.190067 4.188083-49.465622 3.627894-69.027796 3.076597-46.664675-0.56019-87.185049-10.056735-118.760174-31.859667-27.387042-18.157253-48.620892-45.828836-62.314413-84.668642l-1.120379-3.076596c-10.341276-31.023828-16.209928-65.391009-15.649738-98.922352 0.56019-29.903449 5.308462-58.686519 15.089549-82.721317a35.923263 35.923263 0 0 0 4.196975-25.706474c-4.196975-25.706474-24.870635-26.826853-12.582034-60.358195 7.26468-18.441794 21.242742-36.04775 31.023828-45.268647l1.111487-1.671677h0.56019c17.045766-15.934279 26.266663-38.555265 36.607939-64.546279 12.297493-29.903449 26.826853-65.951199 54.213895-82.996965 12.297493-6.144301 20.682552-19.001984 20.682552-34.651722 0-33.531343-5.584111-62.590062-30.739287-87.736347-18.441794-19.010875-44.708457-30.739287-73.206987-33.531343-34.376073-2.516407-92.217862-20.398011-133.574075-60.358195-26.835745-25.733149-45.837728-60.651628-45.837728-107.885385z"  horiz-adv-x="1024" />

    
    <glyph glyph-name="Xtubiao-shouye" unicode="&#58936;" d="M797.639111 296.888889c0 21.788444 17.891556 39.125333 39.694222 39.125333s39.139556-17.336889 39.139556-39.125333v-385.479111A39.139556 39.139556 0 0 0 837.333333-128H188.259556c-21.802667 0-39.694222 17.607111-39.694223 39.409778V296.888889c0 21.788444 17.891556 39.125333 39.694223 39.125333a39.253333 39.253333 0 0 0 39.139555-39.125333v-346.069333h570.24V296.888889z m-730.140444-10.624l444.743111 444.444444 445.312-444.444444c15.089778-15.104 40.248889-15.104 55.352889 0a38.968889 38.968889 0 0 1 0 55.352889L541.041778 814.008889l-0.853334 0.568889a39.850667 39.850667 0 0 1-55.637333 0L12.145778 341.617778a38.485333 38.485333 0 0 1 0-55.352889c15.104-15.104 40.277333-15.104 55.352889 0z"  horiz-adv-x="1024" />

    
    <glyph glyph-name="Coins-" unicode="&#59101;" d="M341.333333 25.6c-64.853333 0-116.053333 34.133333-119.466666 85.333333 0 10.24 6.826667 17.066667 17.066666 17.066667s17.066667-6.826667 17.066667-17.066667c3.413333-30.72 37.546667-51.2 85.333333-51.2s85.333333 27.306667 85.333334 61.44c0 37.546667-47.786667 51.2-81.92 58.026667h-10.24c-75.093333 13.653333-112.64 44.373333-112.64 92.16 0 51.2 54.613333 95.573333 119.466666 95.573333s116.053333-34.133333 119.466667-85.333333c0-10.24-6.826667-17.066667-17.066667-17.066667s-17.066667 6.826667-17.066666 17.066667c-3.413333 30.72-37.546667 51.2-85.333334 51.2s-85.333333-27.306667-85.333333-61.44c0-40.96 47.786667-51.2 81.92-58.026667l10.24-3.413333c75.093333-13.653333 112.64-44.373333 112.64-92.16 0-51.2-54.613333-92.16-119.466667-92.16zM341.333333-8.533333c-10.24 0-17.066667 6.826667-17.066666 17.066666V384c0 10.24 6.826667 17.066667 17.066666 17.066667s17.066667-6.826667 17.066667-17.066667v-375.466667c0-10.24-6.826667-17.066667-17.066667-17.066666zM682.666667 401.066667c-64.853333 0-116.053333 34.133333-119.466667 85.333333 0 10.24 6.826667 17.066667 17.066667 17.066667s17.066667-6.826667 17.066666-17.066667c3.413333-30.72 37.546667-51.2 85.333334-51.2s85.333333 27.306667 85.333333 61.44c0 37.546667-47.786667 51.2-81.92 58.026667h-10.24c-75.093333 13.653333-112.64 44.373333-112.64 92.16 0 51.2 54.613333 95.573333 119.466667 95.573333s116.053333-34.133333 119.466666-85.333333c0-10.24-6.826667-17.066667-17.066666-17.066667s-17.066667 6.826667-17.066667 17.066667c-3.413333 30.72-37.546667 51.2-85.333333 51.2s-85.333333-27.306667-85.333334-61.44c0-40.96 47.786667-51.2 81.92-58.026667h10.24c75.093333-13.653333 112.64-44.373333 112.64-92.16 0-54.613333-54.613333-95.573333-119.466666-95.573333zM682.666667 366.933333c-10.24 0-17.066667 6.826667-17.066667 17.066667V759.466667c0 10.24 6.826667 17.066667 17.066667 17.066666s17.066667-6.826667 17.066666-17.066666v-375.466667c0-10.24-6.826667-17.066667-17.066666-17.066667zM682.666667 230.4c-10.24 0-17.066667 6.826667-17.066667 17.066667s6.826667 17.066667 17.066667 17.066666c160.426667 0 290.133333 129.706667 290.133333 290.133334S843.093333 844.8 682.666667 844.8s-290.133333-129.706667-290.133334-290.133333c0-10.24-6.826667-17.066667-17.066666-17.066667s-17.066667 6.826667-17.066667 17.066667c0 177.493333 146.773333 324.266667 324.266667 324.266666s324.266667-146.773333 324.266666-324.266666-146.773333-324.266667-324.266666-324.266667zM341.333333-110.933333C163.84-110.933333 17.066667 35.84 17.066667 213.333333s146.773333 324.266667 324.266666 324.266667 324.266667-146.773333 324.266667-324.266667-146.773333-324.266667-324.266667-324.266666z m0 614.4c-160.426667 0-290.133333-129.706667-290.133333-290.133334s129.706667-290.133333 290.133333-290.133333 290.133333 129.706667 290.133334 290.133333-129.706667 290.133333-290.133334 290.133334z"  horiz-adv-x="1024" />

    
    <glyph glyph-name="Camera-roll" unicode="&#59639;" d="M460.8-128h-375.466667C37.546667-128 0-90.453333 0-42.666667v750.933334C0 756.053333 37.546667 793.6 85.333333 793.6h375.466667C508.586667 793.6 546.133333 756.053333 546.133333 708.266667v-750.933334c0-47.786667-37.546667-85.333333-85.333333-85.333333zM85.333333 759.466667C58.026667 759.466667 34.133333 735.573333 34.133333 708.266667v-750.933334c0-27.306667 23.893333-51.2 51.2-51.2h375.466667c27.306667 0 51.2 23.893333 51.2 51.2v750.933334c0 27.306667-23.893333 51.2-51.2 51.2h-375.466667zM460.8 8.533333c-10.24 0-17.066667 6.826667-17.066667 17.066667v614.4c0 10.24 6.826667 17.066667 17.066667 17.066667s17.066667-6.826667 17.066667-17.066667v-614.4c0-10.24-6.826667-17.066667-17.066667-17.066667zM836.266667 8.533333h-307.2c-10.24 0-17.066667 6.826667-17.066667 17.066667s6.826667 17.066667 17.066667 17.066667h307.2c13.653333 0 27.306667 10.24 27.306666 27.306666 0 34.133333 27.306667 61.44 61.44 61.44 40.96 0 68.266667 23.893333 68.266667 61.44V588.8c0 37.546667-30.72 68.266667-68.266667 68.266667H532.48c-10.24 0-17.066667 6.826667-17.066667 17.066666s10.24 17.066667 17.066667 17.066667H921.6c58.026667 0 102.4-47.786667 102.4-102.4v-399.36c0-54.613333-44.373333-95.573333-102.4-95.573333-13.653333 0-27.306667-10.24-27.306667-27.306667 0-30.72-27.306667-58.026667-58.026666-58.026667zM631.466667 76.8h-34.133334c-10.24 0-17.066667 6.826667-17.066666 17.066667s6.826667 17.066667 17.066666 17.066666h34.133334c10.24 0 17.066667-6.826667 17.066666-17.066666s-6.826667-17.066667-17.066666-17.066667zM733.866667 76.8h-34.133334c-10.24 0-17.066667 6.826667-17.066666 17.066667s6.826667 17.066667 17.066666 17.066666h34.133334c10.24 0 17.066667-6.826667 17.066666-17.066666s-6.826667-17.066667-17.066666-17.066667zM836.266667 76.8h-34.133334c-10.24 0-17.066667 6.826667-17.066666 17.066667s6.826667 17.066667 17.066666 17.066666h34.133334c10.24 0 17.066667-6.826667 17.066666-17.066666s-6.826667-17.066667-17.066666-17.066667zM631.466667 554.666667h-34.133334c-10.24 0-17.066667 6.826667-17.066666 17.066666s6.826667 17.066667 17.066666 17.066667h34.133334c10.24 0 17.066667-6.826667 17.066666-17.066667s-6.826667-17.066667-17.066666-17.066666zM733.866667 554.666667h-34.133334c-10.24 0-17.066667 6.826667-17.066666 17.066666s6.826667 17.066667 17.066666 17.066667h34.133334c10.24 0 17.066667-6.826667 17.066666-17.066667s-6.826667-17.066667-17.066666-17.066666zM836.266667 554.666667h-34.133334c-10.24 0-17.066667 6.826667-17.066666 17.066666s6.826667 17.066667 17.066666 17.066667h34.133334c10.24 0 17.066667-6.826667 17.066666-17.066667s-6.826667-17.066667-17.066666-17.066666zM938.666667 554.666667h-34.133334c-10.24 0-17.066667 6.826667-17.066666 17.066666s6.826667 17.066667 17.066666 17.066667h34.133334c10.24 0 17.066667-6.826667 17.066666-17.066667s-6.826667-17.066667-17.066666-17.066666zM392.533333 759.466667h-273.066666c-10.24 0-17.066667 6.826667-17.066667 17.066666v68.266667C102.4 872.106667 126.293333 896 153.6 896h204.8c27.306667 0 51.2-23.893333 51.2-51.2v-68.266667c0-10.24-6.826667-17.066667-17.066667-17.066666zM136.533333 793.6h238.933334V844.8c0 10.24-6.826667 17.066667-17.066667 17.066667h-204.8c-10.24 0-17.066667-6.826667-17.066667-17.066667V793.6z"  horiz-adv-x="1024" />

    
    <glyph glyph-name="Camera-" unicode="&#59655;" d="M921.6-42.666667H102.4c-58.026667 0-102.4 47.786667-102.4 102.4V619.52c0 54.613333 40.96 88.746667 102.4 88.746667h163.84L341.333333 803.84c3.413333 3.413333 6.826667 6.826667 13.653334 6.826667h314.026666c6.826667 0 10.24-3.413333 13.653334-6.826667l75.093333-95.573333H921.6c58.026667 0 102.4-47.786667 102.4-102.4v-542.72c0-58.026667-47.786667-105.813333-102.4-105.813334zM102.4 674.133333c-20.48 0-68.266667-6.826667-68.266667-54.613333v-559.786667c0-37.546667 30.72-68.266667 68.266667-68.266666h819.2c37.546667 0 68.266667 30.72 68.266667 68.266666v546.133334c0 37.546667-30.72 68.266667-68.266667 68.266666h-174.08c-6.826667 0-10.24 3.413333-13.653333 6.826667l-75.093334 95.573333h-296.96L290.133333 680.96c-3.413333-3.413333-10.24-6.826667-13.653333-6.826667H102.4z m409.6-614.4c-150.186667 0-273.066667 122.88-273.066667 273.066667s122.88 273.066667 273.066667 273.066667 273.066667-122.88 273.066667-273.066667-122.88-273.066667-273.066667-273.066667z m0 512c-133.12 0-238.933333-105.813333-238.933333-238.933333s105.813333-238.933333 238.933333-238.933333 238.933333 105.813333 238.933333 238.933333-105.813333 238.933333-238.933333 238.933333z"  horiz-adv-x="1024" />

    
    <glyph glyph-name="xingzhuang" unicode="&#58894;" d="M517.147715-11.988442h260.959742a58.574914 58.574914 0 0 1 56.295283 60.371572V84.606073h-58.207855v-38.637806H523.92865v38.637806h-58.207855v-36.222943c0-32.011422 19.280265-60.371572 51.42692-60.371572z m795.938804 93.69668a80.405274 80.405274 0 0 1-71.866319 79.555242 0.88867 0.88867 0 0 1 0.734118 0.618205V773.653387A127.659311 127.659311 0 0 1 1118.989501 896H194.058381a121.960235 121.960235 0 0 1-116.41571-122.346613V161.881685A83.071283 83.071283 0 0 1 0 79.447926l0.405697-97.792287A105.152789 105.152789 0 0 1 109.963196-127.90186h1093.121489a106.118734 106.118734 0 0 1 110.349575 109.074526zM155.304661 773.653387A44.858493 44.858493 0 0 0 194.058381 818.724388h924.93112a50.828034 50.828034 0 0 0 45.283508-45.071001V161.881685h-58.207854V675.899738A88.171473 88.171473 0 0 1 1015.208354 760.767679H297.839528a82.607629 82.607629 0 0 1-84.36565-84.867941V161.881685H155.246705V773.653387zM1047.837981 161.881685H271.681733V675.899738A24.689558 24.689558 0 0 0 297.839528 702.81097H1015.208354a30.253402 30.253402 0 0 0 32.629627-26.911232V161.881685z m155.246704-212.507933H109.963196a30.504548 30.504548 0 0 0-31.934147 35.005852L77.623352 84.606073h1157.801177l0.405697-100.226469A31.084115 31.084115 0 0 0 1203.084685-50.626248z"  horiz-adv-x="1313" />

    
    <glyph glyph-name="bell" unicode="&#58697;" d="M540.4672 752.64c175.2064-14.4384 312.9344-161.28 312.9344-340.1728V128h85.2992c15.6672 0 28.4672-12.6976 28.4672-28.4672 0-15.6672-12.6976-28.4672-28.4672-28.4672H85.2992c-15.6672 0-28.4672 12.6976-28.4672 28.4672 0 15.6672 12.6976 28.4672 28.4672 28.4672h85.2992V412.4672c0 178.8928 137.728 325.7344 312.9344 340.1728v29.5936c0 15.6672 12.6976 28.4672 28.4672 28.4672s28.4672-12.6976 28.4672-28.4672V752.64zM426.7008 42.7008h170.7008c0-47.104-38.1952-85.2992-85.2992-85.2992-47.2064-0.1024-85.4016 38.0928-85.4016 85.2992z"  horiz-adv-x="1024" />

    
    <glyph glyph-name="cart-circle" unicode="&#58699;" d="M512-14.2336c219.9552 0 398.2336 178.2784 398.2336 398.2336S731.9552 782.2336 512 782.2336C292.0448 782.2336 113.7664 603.9552 113.7664 384S292.0448-14.2336 512-14.2336z m0-56.832C260.608-71.0656 56.9344 132.608 56.9344 384S260.608 839.0656 512 839.0656s455.0656-203.776 455.0656-455.0656S763.392-71.0656 512-71.0656zM284.4672 554.7008h480.9728c15.6672 0 28.4672-12.6976 28.4672-28.4672 0-2.9696-0.512-5.9392-1.3312-8.704l-54.8864-170.7008c-3.7888-11.776-14.7456-19.7632-27.0336-19.7632H284.672V554.7008zM341.2992 156.4672m-28.4672 0a28.4672 28.4672 0 1 1 56.9344 0 28.4672 28.4672 0 1 1-56.9344 0ZM682.7008 156.4672m-28.4672 0a28.4672 28.4672 0 1 1 56.9344 0 28.4672 28.4672 0 1 1-56.9344 0ZM256.4096 554.7008c-15.6672 0-28.4672 12.6976-28.4672 28.4672s12.6976 28.4672 28.4672 28.4672h28.4672c31.4368 0 56.9344-25.4976 56.9344-56.9344v-284.672h369.5616c15.6672 0 28.4672-12.6976 28.4672-28.4672s-12.6976-28.4672-28.4672-28.4672h-369.664c-31.4368 0-56.9344 25.4976-56.9344 56.9344v284.672h-28.3648z"  horiz-adv-x="1024" />

    
    <glyph glyph-name="user-circle-o" unicode="&#58727;" d="M512 440.832c-62.7712 0-113.7664 50.9952-113.7664 113.7664S449.2288 668.4672 512 668.4672 625.7664 617.472 625.7664 554.7008 574.7712 440.832 512 440.832m170.7008 113.8688c0 94.3104-76.3904 170.7008-170.7008 170.7008s-170.7008-76.3904-170.7008-170.7008S417.6896 384 512 384s170.7008 76.3904 170.7008 170.7008m115.9168-446.464c-6.656-6.9632-13.6192-13.4144-20.7872-19.8656-2.9696-2.6624-5.9392-5.5296-9.0112-8.192-6.2464-5.3248-12.6976-10.0352-19.1488-14.9504-4.4032-3.1744-8.4992-6.5536-13.0048-9.6256-5.4272-3.6864-10.9568-6.9632-16.5888-10.4448-5.7344-3.4816-11.3664-7.2704-17.3056-10.5472-4.5056-2.4576-9.3184-4.5056-13.9264-6.8608-7.0656-3.584-14.1312-7.2704-21.6064-10.4448-3.8912-1.6384-7.8848-2.8672-11.9808-4.4032-8.192-3.1744-16.4864-6.4512-24.8832-9.1136-3.8912-1.2288-8.0896-2.048-12.0832-3.1744-8.6016-2.3552-17.3056-4.9152-26.2144-6.7584-6.3488-1.3312-13.0048-1.9456-19.456-2.9696-6.7584-1.024-13.312-2.3552-20.1728-3.072-13.5168-1.3312-27.136-2.048-40.7552-2.048-13.7216 0-27.3408 0.7168-40.7552 2.048-6.8608 0.7168-13.4144 2.048-20.1728 3.072-6.5536 1.024-13.1072 1.7408-19.456 2.9696-8.9088 1.8432-17.5104 4.3008-26.2144 6.7584-3.9936 1.1264-8.0896 1.9456-12.0832 3.1744-8.4992 2.6624-16.6912 5.9392-24.8832 9.1136-3.9936 1.536-8.0896 2.7648-11.9808 4.4032-7.3728 3.1744-14.4384 6.8608-21.6064 10.4448-4.608 2.2528-9.3184 4.4032-13.9264 6.8608-5.8368 3.2768-11.4688 6.9632-17.2032 10.5472-5.5296 3.3792-11.1616 6.7584-16.5888 10.4448-4.4032 3.072-8.6016 6.4512-13.0048 9.6256-6.4512 4.8128-12.9024 9.6256-19.1488 14.9504-3.072 2.6624-6.0416 5.5296-9.0112 8.192-7.0656 6.4512-14.1312 13.0048-20.7872 19.8656-0.6144 0.7168-1.3312 1.4336-1.9456 2.1504 62.1568 99.4304 169.6768 159.8464 288.5632 159.8464 118.8864 0 226.4064-60.416 288.5632-159.8464-0.1024-0.7168-0.7168-1.4336-1.4336-2.1504M113.7664 384c0 219.5456 178.688 398.2336 398.2336 398.2336S910.2336 603.5456 910.2336 384c0-84.7872-26.8288-163.2256-72.192-227.9424-71.8848 103.1168-190.7712 171.008-326.0416 171.008s-254.1568-67.8912-326.0416-171.008c-45.3632 64.7168-72.192 143.1552-72.192 227.9424m755.9168-280.8832c60.8256 77.4144 97.4848 174.6944 97.4848 280.8832 0 251.2896-203.776 455.0656-455.0656 455.0656S56.9344 635.2896 56.9344 384c0-106.1888 36.5568-203.4688 97.4848-280.8832 31.0272-39.424 68.1984-73.5232 110.3872-100.9664 1.6384-0.9216 3.1744-1.8432 4.7104-2.7648 11.776-7.4752 23.9616-14.4384 36.4544-20.7872 3.6864-1.8432 7.3728-3.584 11.0592-5.3248 10.752-5.0176 21.6064-9.8304 32.6656-14.0288 4.8128-1.8432 9.6256-3.6864 14.5408-5.3248 10.4448-3.584 21.0944-6.7584 31.9488-9.5232 5.4272-1.4336 10.6496-2.9696 16.0768-4.1984 11.264-2.4576 22.7328-4.4032 34.2016-6.0416 5.0176-0.7168 9.9328-1.7408 15.0528-2.3552 16.5888-1.8432 33.3824-2.8672 50.4832-2.8672 17.1008 0 33.8944 1.1264 50.4832 2.8672 5.0176 0.6144 10.0352 1.6384 15.0528 2.3552 11.4688 1.7408 22.9376 3.584 34.2016 6.0416 5.4272 1.2288 10.6496 2.7648 16.0768 4.1984 10.8544 2.8672 21.504 5.9392 31.9488 9.5232 4.8128 1.7408 9.6256 3.4816 14.5408 5.3248 11.1616 4.1984 21.9136 8.9088 32.6656 14.0288 3.6864 1.7408 7.4752 3.4816 11.0592 5.3248 12.4928 6.3488 24.6784 13.312 36.4544 20.7872 1.536 0.9216 3.072 1.8432 4.7104 2.7648 42.2912 27.4432 79.4624 61.5424 110.4896 100.9664"  horiz-adv-x="1024" />

    
    <glyph glyph-name="xiaoxi" unicode="&#58889;" d="M820.33 797.71H208.16c-59.59 0-108.07-48.48-108.07-108.07v-447.19c0-59.59 48.48-108.07 108.07-108.07h24.98v-131.21a30.01 30.01 0 0 1 16.2-26.64c4.34-2.25 9.08-3.36 13.8-3.36 6.09 0 12.15 1.85 17.31 5.5l220.47 155.72h319.41c59.59 0 108.07 48.48 108.07 108.07V689.64c0 59.59-48.48 108.07-108.07 108.07z m48.07-555.26c0-26.51-21.57-48.07-48.07-48.07H491.39c-6.2 0-12.24-1.92-17.31-5.5l-180.95-127.8v103.3c0 16.57-13.43 30-30 30h-54.98c-26.51 0-48.07 21.57-48.07 48.07V689.64c0 26.51 21.57 48.07 48.07 48.07h612.17c26.51 0 48.07-21.57 48.07-48.07v-447.19zM247.841603 405.359802a72.93 72.93 0 1 1 103.136794 103.140396 72.93 72.93 0 1 1-103.136794-103.140396ZM465.79831 405.361752a72.93 72.93 0 1 1 103.136795 103.140395 72.93 72.93 0 1 1-103.136795-103.140395ZM683.74736 405.358045a72.93 72.93 0 1 1 103.136795 103.140395 72.93 72.93 0 1 1-103.136795-103.140395Z"  horiz-adv-x="1024" />

    
    <glyph glyph-name="piao" unicode="&#58891;" d="M723.03 797.69H610.4v-30c0-53.72-43.71-97.43-97.43-97.43-53.72 0-97.43 43.71-97.43 97.43v30H302.92c-66.17 0-120-53.83-120-120v-584.07c0-66.17 53.83-120 120-120h112.63v30c0 53.72 43.71 97.43 97.43 97.43 53.72 0 97.43-43.71 97.43-97.43v-30h112.63c66.17 0 120 53.83 120 120V677.69c-0.01 66.17-53.84 120-120.01 120z m60-704.07c0-33.08-26.92-60-60-60h-55.49c-14.05 72.5-78.01 127.43-154.56 127.43s-140.51-54.92-154.56-127.43h-55.49c-33.08 0-60 26.92-60 60V677.69c0 33.08 26.92 60 60 60h55.49c14.05-72.5 78.01-127.43 154.56-127.43s140.51 54.92 154.56 127.43h55.49c33.08 0 60-26.92 60-60v-584.07zM268.63 412.65H377.5v-60H268.63zM394.59 412.65h108.87v-60H394.59zM520.54 412.65h108.87v-60H520.54zM646.49 412.65h108.87v-60H646.49z"  horiz-adv-x="1024" />

    
    <glyph glyph-name="shoujihao" unicode="&#58937;" d="M205 183h614.7v-43.7H205zM717.1-63.1H306c-78 0-141.4 63.4-141.4 141.4V688.4c0 78 63.4 141.4 141.4 141.4h409.4c78.9 0 143.1-64.2 143.1-143.1v-608.5c0-77.9-63.4-141.3-141.4-141.3zM306 789.8c-55.9 0-101.4-45.5-101.4-101.4v-610.2c0-55.9 45.5-101.4 101.4-101.4h411.1c55.9 0 101.4 45.5 101.4 101.4V686.7c0 56.8-46.3 103.1-103.1 103.1H306zM512.4 62.8m-43.7 0a43.7 43.7 0 1 1 87.4 0 43.7 43.7 0 1 1-87.4 0Z"  horiz-adv-x="1024" />

    
    <glyph glyph-name="st-browse" unicode="&#59418;" d="M138.362147 594.672523h746.808343c8.283847 0 14.935309-6.651462 14.935309-14.937567s-6.651462-14.935309-14.935309-14.935309H138.362147c-8.2703 0-14.935309 6.651462-14.935309 14.935309s6.665009 14.937567 14.935309 14.937567z m134.424553 44.805927a14.94434 14.94434 0 0 0-14.935309-14.935309c-8.254496 0-14.935309 6.707907-14.935309 14.935309s6.680813 14.935309 14.935309 14.935308a14.942082 14.942082 0 0 0 14.935309-14.935308z m-59.745751 0c0-8.227402-6.680813-14.935309-14.935309-14.935309s-14.937567 6.707907-14.937567 14.935309S189.851144 654.416016 198.10564 654.416016s14.935309-6.710164 14.935309-14.937566z m-59.743493 0a14.94434 14.94434 0 0 0-14.935309-14.935309c-8.256754 0-14.935309 6.707907-14.935309 14.935309S130.105393 654.416016 138.362147 654.416016a14.946598 14.946598 0 0 0 14.935309-14.937566zM108.489271 714.15951c-24.548997 0-44.808185-20.245641-44.808184-44.808185v-567.580121c0-24.560286 20.261446-44.808185 44.808184-44.808184h806.554095c24.562544 0 44.808185 20.247899 44.808184 44.808184V669.351325c0 24.562544-20.245641 44.808185-44.808184 44.808185H108.489271z m0-29.872876h806.554095c8.545751 0 14.935309-6.389558 14.935308-14.935309v-567.580121c0-8.545751-6.389558-14.935309-14.935308-14.935309H108.489271c-8.548009 0-14.935309 6.389558-14.935309 14.935309V669.351325c0 8.548009 6.389558 14.935309 14.935309 14.935309z"  horiz-adv-x="1024" />

    
    <glyph glyph-name="simui-search" unicode="&#58907;" d="M819.2 422.4c0 95.488-33.792 176.896-101.376 244.224C650.496 734.208 568.832 768 473.6 768c-95.488 0-176.896-33.792-244.48-101.376C161.536 599.296 128 517.888 128 422.4c0-95.232 33.536-176.896 101.12-244.48 67.584-67.328 148.992-101.12 244.48-101.12 86.528 0 162.048 27.904 225.536 83.712l160.512-160.512 36.352 36.352-160.512 160.256c55.808 63.744 83.712 139.008 83.712 225.792z m-137.472 208.128c57.344-57.6 86.272-126.72 86.272-208.128 0-81.152-28.928-150.528-86.272-208.128-57.6-57.344-126.976-86.272-208.128-86.272-81.408 0-150.784 28.928-208.384 86.272C207.872 271.872 179.2 341.248 179.2 422.4c0 81.408 28.672 150.528 86.016 208.128C322.816 688.128 392.192 716.8 473.6 716.8c81.152 0 150.528-28.672 208.128-86.272z"  horiz-adv-x="1024" />

    
    <glyph glyph-name="shouye" unicode="&#58928;" d="M519.1 750.9c6.4 0 12.5-2.1 16.3-5.5l1.8-1.6 1.8-1.5 341.8-276.1c1-1.1 1.9-2.5 1.9-3.9v-402c0-5.5-4.9-10.4-10.4-10.4H154.9c-5.5 0-10.4 4.9-10.4 10.4V462.3c0 1.3 0.7 2.6 1.6 3.6l352.1 275.6 2.4 1.8 2.2 2c3.8 3.5 9.9 5.6 16.3 5.6m0 80c-25.4 0-50.9-8.8-70.2-26.4L93.5 526.3c-19.6-17.9-29.3-41.5-28.9-65.1v-400.8c0-49.7 40.7-90.4 90.4-90.4h717.4c49.7 0 90.4 40.7 90.4 90.4V460v1.2c0.3 23.6-9.3 47.2-28.9 65.1L589.3 804.5c-19.3 17.6-44.8 26.4-70.2 26.4zM609.1 79.7h-191V184.2c0 52.5 43 95.5 95.5 95.5s95.5-43 95.5-95.5v-104.5z"  horiz-adv-x="1024" />

    
    <glyph glyph-name="fanhui" unicode="&#58932;" d="M599.8-51.3l-419.9 420c-8.2 8.2-8.2 21.5 0 29.7L601.1 819.5c16.4 16.4 43 16.4 59.3 0 16.4-16.4 16.4-43 0-59.3L291.2 390.9c-4.1-4.1-4.1-10.7 0-14.8l368-368c16.4-16.4 16.4-43 0-59.3-16.4-16.5-43-16.5-59.4-0.1z"  horiz-adv-x="1024" />

    
    <glyph glyph-name="xiangxia" unicode="&#58933;" d="M77.6 572.7l419.9-419.9c8.2-8.2 21.5-8.2 29.7 0l421.1 421.1c16.4 16.4 16.4 43 0 59.3-16.4 16.4-43 16.4-59.3 0L519.8 264.1c-4.1-4.1-10.7-4.1-14.8 0l-368 368c-16.4 16.4-43 16.4-59.3 0-16.5-16.4-16.5-43-0.1-59.4z"  horiz-adv-x="1024" />

    
    <glyph glyph-name="xiayige" unicode="&#58934;" d="M456.6-51.3l419.9 419.9c8.2 8.2 8.2 21.5 0 29.7L455.4 819.5c-16.4 16.4-43 16.4-59.3 0-16.4-16.4-16.4-43 0-59.3L765.3 391c4.1-4.1 4.1-10.7 0-14.8l-368-368c-16.4-16.4-16.4-43 0-59.3 16.4-16.6 42.9-16.6 59.3-0.2z"  horiz-adv-x="1024" />

    


  </font>
</defs>
</svg>
